<svg xmlns="http://www.w3.org/2000/svg" fill="white" height="24" viewBox="0 -960 960 960" width="24"><path d="M54-619v-157q0-43.725 31.138-74.862Q116.275-882 160-882h640q43.725 0 74.862 31.138Q906-819.725 906-776v157H800v-157H160v157H54Zm106 397q-43.725 0-74.862-30Q54-282 54-326v-187h106v185h640v-185h106v187q0 44-31.138 74-31.137 30-74.862 30H160ZM12-76v-106h936v106H12Zm468-476ZM54-513v-106h266q14.548 0 27.774 7.5T368-590l34 71 110-191q7-14 20-21t28-7q15 0 28.2 7t19.8 21l45 91h253v106H619q-14.548 0-27.774-7.5T572-542l-15-29-109 189q-7 14-20.226 21.5Q414.548-353 400-353q-15.033 0-28.017-7.5Q359-368 352-382l-65-131H54Z"/></svg>